<mxfile host="app.diagrams.net" agent="Mozilla/5.0 (Windows NT 10.0; Win64; x64) AppleWebKit/537.36 (KHTML, like Gecko) Chrome/130.0.0.0 Safari/537.36" version="24.8.4">
  <diagram name="Сторінка-1" id="OFb5LJ95MV4oqH9fy76H">
    <mxGraphModel dx="5263" dy="2537" grid="0" gridSize="10" guides="1" tooltips="1" connect="1" arrows="1" fold="1" page="0" pageScale="1" pageWidth="827" pageHeight="1169" math="0" shadow="0">
      <root>
        <mxCell id="0" />
        <mxCell id="1" parent="0" />
        <mxCell id="EwB9a3tiwE-nJWPInOgN-85" style="edgeStyle=orthogonalEdgeStyle;rounded=0;orthogonalLoop=1;jettySize=auto;html=1;exitX=0.5;exitY=1;exitDx=0;exitDy=0;entryX=0.5;entryY=0;entryDx=0;entryDy=0;" edge="1" parent="1" source="EwB9a3tiwE-nJWPInOgN-1" target="EwB9a3tiwE-nJWPInOgN-3">
          <mxGeometry relative="1" as="geometry" />
        </mxCell>
        <mxCell id="EwB9a3tiwE-nJWPInOgN-1" value="START" style="ellipse;whiteSpace=wrap;html=1;" vertex="1" parent="1">
          <mxGeometry x="521" y="73" width="120" height="80" as="geometry" />
        </mxCell>
        <mxCell id="EwB9a3tiwE-nJWPInOgN-84" style="edgeStyle=orthogonalEdgeStyle;rounded=0;orthogonalLoop=1;jettySize=auto;html=1;exitX=0.5;exitY=1;exitDx=0;exitDy=0;entryX=0.5;entryY=0;entryDx=0;entryDy=0;" edge="1" parent="1" source="EwB9a3tiwE-nJWPInOgN-3" target="EwB9a3tiwE-nJWPInOgN-4">
          <mxGeometry relative="1" as="geometry" />
        </mxCell>
        <mxCell id="EwB9a3tiwE-nJWPInOgN-3" value="init DCL list" style="rounded=0;whiteSpace=wrap;html=1;" vertex="1" parent="1">
          <mxGeometry x="521" y="187" width="120" height="60" as="geometry" />
        </mxCell>
        <mxCell id="EwB9a3tiwE-nJWPInOgN-81" style="edgeStyle=orthogonalEdgeStyle;rounded=0;orthogonalLoop=1;jettySize=auto;html=1;exitX=0.5;exitY=1;exitDx=0;exitDy=0;entryX=0.5;entryY=0;entryDx=0;entryDy=0;" edge="1" parent="1" source="EwB9a3tiwE-nJWPInOgN-4" target="EwB9a3tiwE-nJWPInOgN-5">
          <mxGeometry relative="1" as="geometry" />
        </mxCell>
        <mxCell id="EwB9a3tiwE-nJWPInOgN-4" value="get q" style="shape=parallelogram;perimeter=parallelogramPerimeter;whiteSpace=wrap;html=1;fixedSize=1;" vertex="1" parent="1">
          <mxGeometry x="521" y="279" width="120" height="60" as="geometry" />
        </mxCell>
        <mxCell id="EwB9a3tiwE-nJWPInOgN-41" style="edgeStyle=orthogonalEdgeStyle;rounded=0;orthogonalLoop=1;jettySize=auto;html=1;exitX=0;exitY=0.5;exitDx=0;exitDy=0;entryX=0.5;entryY=0;entryDx=0;entryDy=0;" edge="1" parent="1" source="EwB9a3tiwE-nJWPInOgN-5" target="EwB9a3tiwE-nJWPInOgN-40">
          <mxGeometry relative="1" as="geometry" />
        </mxCell>
        <mxCell id="EwB9a3tiwE-nJWPInOgN-83" style="edgeStyle=orthogonalEdgeStyle;rounded=0;orthogonalLoop=1;jettySize=auto;html=1;exitX=0.5;exitY=1;exitDx=0;exitDy=0;entryX=0.5;entryY=0;entryDx=0;entryDy=0;" edge="1" parent="1" source="EwB9a3tiwE-nJWPInOgN-5" target="EwB9a3tiwE-nJWPInOgN-82">
          <mxGeometry relative="1" as="geometry" />
        </mxCell>
        <mxCell id="EwB9a3tiwE-nJWPInOgN-5" value="q-- &amp;gt; 0?" style="rhombus;whiteSpace=wrap;html=1;" vertex="1" parent="1">
          <mxGeometry x="544" y="365" width="80" height="58" as="geometry" />
        </mxCell>
        <mxCell id="EwB9a3tiwE-nJWPInOgN-34" style="edgeStyle=orthogonalEdgeStyle;rounded=0;orthogonalLoop=1;jettySize=auto;html=1;exitX=0.5;exitY=1;exitDx=0;exitDy=0;entryX=0.5;entryY=0;entryDx=0;entryDy=0;" edge="1" parent="1" source="EwB9a3tiwE-nJWPInOgN-8" target="EwB9a3tiwE-nJWPInOgN-9">
          <mxGeometry relative="1" as="geometry" />
        </mxCell>
        <mxCell id="EwB9a3tiwE-nJWPInOgN-8" value="init and get index and N" style="shape=parallelogram;perimeter=parallelogramPerimeter;whiteSpace=wrap;html=1;fixedSize=1;" vertex="1" parent="1">
          <mxGeometry x="461" y="696" width="167" height="60" as="geometry" />
        </mxCell>
        <mxCell id="EwB9a3tiwE-nJWPInOgN-35" style="edgeStyle=orthogonalEdgeStyle;rounded=0;orthogonalLoop=1;jettySize=auto;html=1;exitX=0.5;exitY=1;exitDx=0;exitDy=0;entryX=0.5;entryY=0;entryDx=0;entryDy=0;" edge="1" parent="1" source="EwB9a3tiwE-nJWPInOgN-9" target="EwB9a3tiwE-nJWPInOgN-10">
          <mxGeometry relative="1" as="geometry" />
        </mxCell>
        <mxCell id="EwB9a3tiwE-nJWPInOgN-9" value="cin.ignore()" style="rounded=0;whiteSpace=wrap;html=1;" vertex="1" parent="1">
          <mxGeometry x="485" y="784" width="120" height="60" as="geometry" />
        </mxCell>
        <mxCell id="EwB9a3tiwE-nJWPInOgN-36" style="edgeStyle=orthogonalEdgeStyle;rounded=0;orthogonalLoop=1;jettySize=auto;html=1;exitX=1;exitY=0.5;exitDx=0;exitDy=0;entryX=0.5;entryY=0;entryDx=0;entryDy=0;" edge="1" parent="1" source="EwB9a3tiwE-nJWPInOgN-10" target="EwB9a3tiwE-nJWPInOgN-11">
          <mxGeometry relative="1" as="geometry" />
        </mxCell>
        <mxCell id="EwB9a3tiwE-nJWPInOgN-10" value="N-- &amp;gt;0?" style="rhombus;whiteSpace=wrap;html=1;" vertex="1" parent="1">
          <mxGeometry x="505" y="876" width="80" height="52" as="geometry" />
        </mxCell>
        <mxCell id="EwB9a3tiwE-nJWPInOgN-32" style="edgeStyle=orthogonalEdgeStyle;rounded=0;orthogonalLoop=1;jettySize=auto;html=1;exitX=0.5;exitY=1;exitDx=0;exitDy=0;entryX=0.5;entryY=0;entryDx=0;entryDy=0;" edge="1" parent="1" source="EwB9a3tiwE-nJWPInOgN-11" target="EwB9a3tiwE-nJWPInOgN-12">
          <mxGeometry relative="1" as="geometry" />
        </mxCell>
        <mxCell id="EwB9a3tiwE-nJWPInOgN-11" value="init and get n" style="shape=parallelogram;perimeter=parallelogramPerimeter;whiteSpace=wrap;html=1;fixedSize=1;" vertex="1" parent="1">
          <mxGeometry x="590" y="960" width="120" height="60" as="geometry" />
        </mxCell>
        <mxCell id="EwB9a3tiwE-nJWPInOgN-31" style="edgeStyle=orthogonalEdgeStyle;rounded=0;orthogonalLoop=1;jettySize=auto;html=1;exitX=0.5;exitY=1;exitDx=0;exitDy=0;entryX=0.5;entryY=0;entryDx=0;entryDy=0;" edge="1" parent="1" source="EwB9a3tiwE-nJWPInOgN-12" target="EwB9a3tiwE-nJWPInOgN-13">
          <mxGeometry relative="1" as="geometry" />
        </mxCell>
        <mxCell id="EwB9a3tiwE-nJWPInOgN-12" value="list.insert(n)" style="shape=process;whiteSpace=wrap;html=1;backgroundOutline=1;" vertex="1" parent="1">
          <mxGeometry x="590" y="1054" width="120" height="60" as="geometry" />
        </mxCell>
        <mxCell id="EwB9a3tiwE-nJWPInOgN-38" style="edgeStyle=orthogonalEdgeStyle;rounded=0;orthogonalLoop=1;jettySize=auto;html=1;exitX=0;exitY=0.5;exitDx=0;exitDy=0;entryX=0.5;entryY=1;entryDx=0;entryDy=0;" edge="1" parent="1" source="EwB9a3tiwE-nJWPInOgN-13" target="EwB9a3tiwE-nJWPInOgN-10">
          <mxGeometry relative="1" as="geometry" />
        </mxCell>
        <mxCell id="EwB9a3tiwE-nJWPInOgN-74" style="edgeStyle=orthogonalEdgeStyle;rounded=0;orthogonalLoop=1;jettySize=auto;html=1;exitX=1;exitY=0.5;exitDx=0;exitDy=0;entryX=1;entryY=0.5;entryDx=0;entryDy=0;" edge="1" parent="1" source="EwB9a3tiwE-nJWPInOgN-13" target="EwB9a3tiwE-nJWPInOgN-5">
          <mxGeometry relative="1" as="geometry">
            <Array as="points">
              <mxPoint x="892" y="1166" />
              <mxPoint x="892" y="394" />
            </Array>
          </mxGeometry>
        </mxCell>
        <mxCell id="EwB9a3tiwE-nJWPInOgN-13" value="index++" style="rounded=0;whiteSpace=wrap;html=1;" vertex="1" parent="1">
          <mxGeometry x="590" y="1136" width="120" height="60" as="geometry" />
        </mxCell>
        <mxCell id="EwB9a3tiwE-nJWPInOgN-33" style="edgeStyle=orthogonalEdgeStyle;rounded=0;orthogonalLoop=1;jettySize=auto;html=1;exitX=0.5;exitY=1;exitDx=0;exitDy=0;entryX=0.5;entryY=0;entryDx=0;entryDy=0;" edge="1" parent="1" source="EwB9a3tiwE-nJWPInOgN-14" target="EwB9a3tiwE-nJWPInOgN-15">
          <mxGeometry relative="1" as="geometry" />
        </mxCell>
        <mxCell id="EwB9a3tiwE-nJWPInOgN-14" value="init and get index and N" style="shape=parallelogram;perimeter=parallelogramPerimeter;whiteSpace=wrap;html=1;fixedSize=1;" vertex="1" parent="1">
          <mxGeometry x="275.69000000000005" y="844" width="167" height="60" as="geometry" />
        </mxCell>
        <mxCell id="EwB9a3tiwE-nJWPInOgN-75" style="edgeStyle=orthogonalEdgeStyle;rounded=0;orthogonalLoop=1;jettySize=auto;html=1;exitX=0.5;exitY=1;exitDx=0;exitDy=0;entryX=1;entryY=0.5;entryDx=0;entryDy=0;" edge="1" parent="1" source="EwB9a3tiwE-nJWPInOgN-15" target="EwB9a3tiwE-nJWPInOgN-5">
          <mxGeometry relative="1" as="geometry">
            <Array as="points">
              <mxPoint x="359" y="1387" />
              <mxPoint x="892" y="1387" />
              <mxPoint x="892" y="394" />
            </Array>
          </mxGeometry>
        </mxCell>
        <mxCell id="EwB9a3tiwE-nJWPInOgN-15" value="list.delNodes(list.begin() + index, N);" style="shape=process;whiteSpace=wrap;html=1;backgroundOutline=1;" vertex="1" parent="1">
          <mxGeometry x="261.69000000000005" y="939" width="195" height="60" as="geometry" />
        </mxCell>
        <mxCell id="EwB9a3tiwE-nJWPInOgN-76" style="edgeStyle=orthogonalEdgeStyle;rounded=0;orthogonalLoop=1;jettySize=auto;html=1;exitX=0.5;exitY=1;exitDx=0;exitDy=0;entryX=1;entryY=0.5;entryDx=0;entryDy=0;" edge="1" parent="1" source="EwB9a3tiwE-nJWPInOgN-16" target="EwB9a3tiwE-nJWPInOgN-5">
          <mxGeometry relative="1" as="geometry">
            <Array as="points">
              <mxPoint x="177" y="1388" />
              <mxPoint x="893" y="1388" />
              <mxPoint x="893" y="394" />
            </Array>
          </mxGeometry>
        </mxCell>
        <mxCell id="EwB9a3tiwE-nJWPInOgN-16" value="output list.size" style="shape=parallelogram;perimeter=parallelogramPerimeter;whiteSpace=wrap;html=1;fixedSize=1;" vertex="1" parent="1">
          <mxGeometry x="117" y="987" width="120" height="60" as="geometry" />
        </mxCell>
        <mxCell id="EwB9a3tiwE-nJWPInOgN-29" style="edgeStyle=orthogonalEdgeStyle;rounded=0;orthogonalLoop=1;jettySize=auto;html=1;exitX=0.5;exitY=1;exitDx=0;exitDy=0;entryX=0.5;entryY=0;entryDx=0;entryDy=0;" edge="1" parent="1" source="EwB9a3tiwE-nJWPInOgN-19" target="EwB9a3tiwE-nJWPInOgN-21">
          <mxGeometry relative="1" as="geometry" />
        </mxCell>
        <mxCell id="EwB9a3tiwE-nJWPInOgN-19" value="init and get i" style="shape=parallelogram;perimeter=parallelogramPerimeter;whiteSpace=wrap;html=1;fixedSize=1;" vertex="1" parent="1">
          <mxGeometry x="-68" y="1132" width="120" height="60" as="geometry" />
        </mxCell>
        <mxCell id="EwB9a3tiwE-nJWPInOgN-30" style="edgeStyle=orthogonalEdgeStyle;rounded=0;orthogonalLoop=1;jettySize=auto;html=1;exitX=0.5;exitY=1;exitDx=0;exitDy=0;entryX=0.5;entryY=0;entryDx=0;entryDy=0;" edge="1" parent="1" source="EwB9a3tiwE-nJWPInOgN-21" target="EwB9a3tiwE-nJWPInOgN-22">
          <mxGeometry relative="1" as="geometry" />
        </mxCell>
        <mxCell id="EwB9a3tiwE-nJWPInOgN-21" value="a=list.begin()" style="shape=process;whiteSpace=wrap;html=1;backgroundOutline=1;" vertex="1" parent="1">
          <mxGeometry x="-68" y="1221" width="120" height="60" as="geometry" />
        </mxCell>
        <mxCell id="EwB9a3tiwE-nJWPInOgN-77" style="edgeStyle=orthogonalEdgeStyle;rounded=0;orthogonalLoop=1;jettySize=auto;html=1;exitX=0.5;exitY=1;exitDx=0;exitDy=0;entryX=1;entryY=0.5;entryDx=0;entryDy=0;" edge="1" parent="1" source="EwB9a3tiwE-nJWPInOgN-22" target="EwB9a3tiwE-nJWPInOgN-5">
          <mxGeometry relative="1" as="geometry">
            <Array as="points">
              <mxPoint x="-8" y="1386" />
              <mxPoint x="894" y="1386" />
              <mxPoint x="894" y="394" />
            </Array>
          </mxGeometry>
        </mxCell>
        <mxCell id="EwB9a3tiwE-nJWPInOgN-22" value="output a.data" style="shape=parallelogram;perimeter=parallelogramPerimeter;whiteSpace=wrap;html=1;fixedSize=1;" vertex="1" parent="1">
          <mxGeometry x="-68" y="1306" width="120" height="60" as="geometry" />
        </mxCell>
        <mxCell id="EwB9a3tiwE-nJWPInOgN-27" style="edgeStyle=orthogonalEdgeStyle;rounded=0;orthogonalLoop=1;jettySize=auto;html=1;exitX=0.5;exitY=1;exitDx=0;exitDy=0;entryX=0.5;entryY=0;entryDx=0;entryDy=0;" edge="1" parent="1" source="EwB9a3tiwE-nJWPInOgN-23" target="EwB9a3tiwE-nJWPInOgN-24">
          <mxGeometry relative="1" as="geometry" />
        </mxCell>
        <mxCell id="EwB9a3tiwE-nJWPInOgN-23" value="init and get i and value" style="shape=parallelogram;perimeter=parallelogramPerimeter;whiteSpace=wrap;html=1;fixedSize=1;" vertex="1" parent="1">
          <mxGeometry x="-258" y="1281" width="120" height="60" as="geometry" />
        </mxCell>
        <mxCell id="EwB9a3tiwE-nJWPInOgN-28" style="edgeStyle=orthogonalEdgeStyle;rounded=0;orthogonalLoop=1;jettySize=auto;html=1;exitX=0.5;exitY=1;exitDx=0;exitDy=0;entryX=0.5;entryY=0;entryDx=0;entryDy=0;" edge="1" parent="1" source="EwB9a3tiwE-nJWPInOgN-24" target="EwB9a3tiwE-nJWPInOgN-25">
          <mxGeometry relative="1" as="geometry" />
        </mxCell>
        <mxCell id="EwB9a3tiwE-nJWPInOgN-24" value="a=list.begin()" style="shape=process;whiteSpace=wrap;html=1;backgroundOutline=1;" vertex="1" parent="1">
          <mxGeometry x="-258" y="1370" width="120" height="60" as="geometry" />
        </mxCell>
        <mxCell id="EwB9a3tiwE-nJWPInOgN-78" style="edgeStyle=orthogonalEdgeStyle;rounded=0;orthogonalLoop=1;jettySize=auto;html=1;exitX=0.5;exitY=1;exitDx=0;exitDy=0;entryX=1;entryY=0.5;entryDx=0;entryDy=0;" edge="1" parent="1" source="EwB9a3tiwE-nJWPInOgN-25" target="EwB9a3tiwE-nJWPInOgN-5">
          <mxGeometry relative="1" as="geometry">
            <Array as="points">
              <mxPoint x="-198" y="1535" />
              <mxPoint x="894" y="1535" />
              <mxPoint x="894" y="394" />
            </Array>
          </mxGeometry>
        </mxCell>
        <mxCell id="EwB9a3tiwE-nJWPInOgN-25" value="a.data = value" style="rounded=0;whiteSpace=wrap;html=1;" vertex="1" parent="1">
          <mxGeometry x="-258" y="1455" width="120" height="60" as="geometry" />
        </mxCell>
        <mxCell id="EwB9a3tiwE-nJWPInOgN-79" style="edgeStyle=orthogonalEdgeStyle;rounded=0;orthogonalLoop=1;jettySize=auto;html=1;exitX=0.5;exitY=1;exitDx=0;exitDy=0;entryX=1;entryY=0.5;entryDx=0;entryDy=0;" edge="1" parent="1" source="EwB9a3tiwE-nJWPInOgN-26" target="EwB9a3tiwE-nJWPInOgN-5">
          <mxGeometry relative="1" as="geometry">
            <Array as="points">
              <mxPoint x="-379" y="1536" />
              <mxPoint x="894" y="1536" />
              <mxPoint x="894" y="394" />
            </Array>
          </mxGeometry>
        </mxCell>
        <mxCell id="EwB9a3tiwE-nJWPInOgN-26" value="list &amp;lt;&amp;lt; &quot; &quot;" style="shape=process;whiteSpace=wrap;html=1;backgroundOutline=1;" vertex="1" parent="1">
          <mxGeometry x="-438.81" y="1427" width="120" height="60" as="geometry" />
        </mxCell>
        <mxCell id="EwB9a3tiwE-nJWPInOgN-37" value="yes" style="text;html=1;align=center;verticalAlign=middle;resizable=0;points=[];autosize=1;strokeColor=none;fillColor=none;" vertex="1" parent="1">
          <mxGeometry x="596" y="871" width="37" height="26" as="geometry" />
        </mxCell>
        <mxCell id="EwB9a3tiwE-nJWPInOgN-43" style="edgeStyle=orthogonalEdgeStyle;rounded=0;orthogonalLoop=1;jettySize=auto;html=1;" edge="1" parent="1" source="EwB9a3tiwE-nJWPInOgN-39">
          <mxGeometry relative="1" as="geometry">
            <mxPoint x="544.5238095238092" y="697.3809523809523" as="targetPoint" />
          </mxGeometry>
        </mxCell>
        <mxCell id="EwB9a3tiwE-nJWPInOgN-45" style="edgeStyle=orthogonalEdgeStyle;rounded=0;orthogonalLoop=1;jettySize=auto;html=1;" edge="1" parent="1" source="EwB9a3tiwE-nJWPInOgN-39">
          <mxGeometry relative="1" as="geometry">
            <mxPoint x="158.80952380952385" y="727.3809523809523" as="targetPoint" />
          </mxGeometry>
        </mxCell>
        <mxCell id="EwB9a3tiwE-nJWPInOgN-39" value="line == &quot;insert&quot;" style="rhombus;whiteSpace=wrap;html=1;" vertex="1" parent="1">
          <mxGeometry x="243.5" y="580" width="203" height="53" as="geometry" />
        </mxCell>
        <mxCell id="EwB9a3tiwE-nJWPInOgN-80" style="edgeStyle=orthogonalEdgeStyle;rounded=0;orthogonalLoop=1;jettySize=auto;html=1;exitX=0.5;exitY=1;exitDx=0;exitDy=0;entryX=0.5;entryY=0;entryDx=0;entryDy=0;" edge="1" parent="1" source="EwB9a3tiwE-nJWPInOgN-40" target="EwB9a3tiwE-nJWPInOgN-39">
          <mxGeometry relative="1" as="geometry" />
        </mxCell>
        <mxCell id="EwB9a3tiwE-nJWPInOgN-40" value="init and get line" style="shape=parallelogram;perimeter=parallelogramPerimeter;whiteSpace=wrap;html=1;fixedSize=1;" vertex="1" parent="1">
          <mxGeometry x="285" y="472" width="120" height="60" as="geometry" />
        </mxCell>
        <mxCell id="EwB9a3tiwE-nJWPInOgN-42" value="yes" style="text;html=1;align=center;verticalAlign=middle;resizable=0;points=[];autosize=1;strokeColor=none;fillColor=none;" vertex="1" parent="1">
          <mxGeometry x="490" y="365" width="37" height="26" as="geometry" />
        </mxCell>
        <mxCell id="EwB9a3tiwE-nJWPInOgN-44" value="yes" style="text;html=1;align=center;verticalAlign=middle;resizable=0;points=[];autosize=1;strokeColor=none;fillColor=none;" vertex="1" parent="1">
          <mxGeometry x="453" y="571" width="37" height="26" as="geometry" />
        </mxCell>
        <mxCell id="EwB9a3tiwE-nJWPInOgN-46" value="no" style="text;html=1;align=center;verticalAlign=middle;resizable=0;points=[];autosize=1;strokeColor=none;fillColor=none;" vertex="1" parent="1">
          <mxGeometry x="164" y="568" width="31" height="26" as="geometry" />
        </mxCell>
        <mxCell id="EwB9a3tiwE-nJWPInOgN-47" style="edgeStyle=orthogonalEdgeStyle;rounded=0;orthogonalLoop=1;jettySize=auto;html=1;" edge="1" parent="1" source="EwB9a3tiwE-nJWPInOgN-49">
          <mxGeometry relative="1" as="geometry">
            <mxPoint x="359.7138095238092" y="842.3809523809523" as="targetPoint" />
          </mxGeometry>
        </mxCell>
        <mxCell id="EwB9a3tiwE-nJWPInOgN-48" style="edgeStyle=orthogonalEdgeStyle;rounded=0;orthogonalLoop=1;jettySize=auto;html=1;" edge="1" parent="1" source="EwB9a3tiwE-nJWPInOgN-49">
          <mxGeometry relative="1" as="geometry">
            <mxPoint x="-26.00047619047615" y="872.3809523809523" as="targetPoint" />
          </mxGeometry>
        </mxCell>
        <mxCell id="EwB9a3tiwE-nJWPInOgN-49" value="line == &quot;erase&quot;" style="rhombus;whiteSpace=wrap;html=1;" vertex="1" parent="1">
          <mxGeometry x="58.69" y="725" width="203" height="53" as="geometry" />
        </mxCell>
        <mxCell id="EwB9a3tiwE-nJWPInOgN-50" value="yes" style="text;html=1;align=center;verticalAlign=middle;resizable=0;points=[];autosize=1;strokeColor=none;fillColor=none;" vertex="1" parent="1">
          <mxGeometry x="268.19" y="716" width="37" height="26" as="geometry" />
        </mxCell>
        <mxCell id="EwB9a3tiwE-nJWPInOgN-51" value="no" style="text;html=1;align=center;verticalAlign=middle;resizable=0;points=[];autosize=1;strokeColor=none;fillColor=none;" vertex="1" parent="1">
          <mxGeometry x="-20.810000000000002" y="713" width="31" height="26" as="geometry" />
        </mxCell>
        <mxCell id="EwB9a3tiwE-nJWPInOgN-52" style="edgeStyle=orthogonalEdgeStyle;rounded=0;orthogonalLoop=1;jettySize=auto;html=1;" edge="1" parent="1" source="EwB9a3tiwE-nJWPInOgN-54">
          <mxGeometry relative="1" as="geometry">
            <mxPoint x="174.71380952380918" y="988.3809523809523" as="targetPoint" />
          </mxGeometry>
        </mxCell>
        <mxCell id="EwB9a3tiwE-nJWPInOgN-53" style="edgeStyle=orthogonalEdgeStyle;rounded=0;orthogonalLoop=1;jettySize=auto;html=1;" edge="1" parent="1" source="EwB9a3tiwE-nJWPInOgN-54">
          <mxGeometry relative="1" as="geometry">
            <mxPoint x="-211.00047619047615" y="1018.3809523809523" as="targetPoint" />
          </mxGeometry>
        </mxCell>
        <mxCell id="EwB9a3tiwE-nJWPInOgN-54" value="line == &quot;size&quot;" style="rhombus;whiteSpace=wrap;html=1;" vertex="1" parent="1">
          <mxGeometry x="-126.31" y="871" width="203" height="53" as="geometry" />
        </mxCell>
        <mxCell id="EwB9a3tiwE-nJWPInOgN-55" value="yes" style="text;html=1;align=center;verticalAlign=middle;resizable=0;points=[];autosize=1;strokeColor=none;fillColor=none;" vertex="1" parent="1">
          <mxGeometry x="83.19" y="862" width="37" height="26" as="geometry" />
        </mxCell>
        <mxCell id="EwB9a3tiwE-nJWPInOgN-56" value="no" style="text;html=1;align=center;verticalAlign=middle;resizable=0;points=[];autosize=1;strokeColor=none;fillColor=none;" vertex="1" parent="1">
          <mxGeometry x="-205.81" y="859" width="31" height="26" as="geometry" />
        </mxCell>
        <mxCell id="EwB9a3tiwE-nJWPInOgN-57" style="edgeStyle=orthogonalEdgeStyle;rounded=0;orthogonalLoop=1;jettySize=auto;html=1;" edge="1" parent="1" source="EwB9a3tiwE-nJWPInOgN-59">
          <mxGeometry relative="1" as="geometry">
            <mxPoint x="-10.286190476190825" y="1133.3809523809523" as="targetPoint" />
          </mxGeometry>
        </mxCell>
        <mxCell id="EwB9a3tiwE-nJWPInOgN-58" style="edgeStyle=orthogonalEdgeStyle;rounded=0;orthogonalLoop=1;jettySize=auto;html=1;" edge="1" parent="1" source="EwB9a3tiwE-nJWPInOgN-59">
          <mxGeometry relative="1" as="geometry">
            <mxPoint x="-396.00047619047615" y="1163.3809523809523" as="targetPoint" />
          </mxGeometry>
        </mxCell>
        <mxCell id="EwB9a3tiwE-nJWPInOgN-59" value="line == &quot;get&quot;" style="rhombus;whiteSpace=wrap;html=1;" vertex="1" parent="1">
          <mxGeometry x="-311.31" y="1016" width="203" height="53" as="geometry" />
        </mxCell>
        <mxCell id="EwB9a3tiwE-nJWPInOgN-60" value="yes" style="text;html=1;align=center;verticalAlign=middle;resizable=0;points=[];autosize=1;strokeColor=none;fillColor=none;" vertex="1" parent="1">
          <mxGeometry x="-101.81" y="1007" width="37" height="26" as="geometry" />
        </mxCell>
        <mxCell id="EwB9a3tiwE-nJWPInOgN-61" value="no" style="text;html=1;align=center;verticalAlign=middle;resizable=0;points=[];autosize=1;strokeColor=none;fillColor=none;" vertex="1" parent="1">
          <mxGeometry x="-390.81" y="1004" width="31" height="26" as="geometry" />
        </mxCell>
        <mxCell id="EwB9a3tiwE-nJWPInOgN-62" style="edgeStyle=orthogonalEdgeStyle;rounded=0;orthogonalLoop=1;jettySize=auto;html=1;" edge="1" parent="1" source="EwB9a3tiwE-nJWPInOgN-64">
          <mxGeometry relative="1" as="geometry">
            <mxPoint x="-197.28619047619082" y="1280.3809523809523" as="targetPoint" />
          </mxGeometry>
        </mxCell>
        <mxCell id="EwB9a3tiwE-nJWPInOgN-63" style="edgeStyle=orthogonalEdgeStyle;rounded=0;orthogonalLoop=1;jettySize=auto;html=1;" edge="1" parent="1" source="EwB9a3tiwE-nJWPInOgN-64">
          <mxGeometry relative="1" as="geometry">
            <mxPoint x="-583.0004761904762" y="1310.3809523809523" as="targetPoint" />
          </mxGeometry>
        </mxCell>
        <mxCell id="EwB9a3tiwE-nJWPInOgN-64" value="line == &quot;set&quot;" style="rhombus;whiteSpace=wrap;html=1;" vertex="1" parent="1">
          <mxGeometry x="-498.31" y="1163" width="203" height="53" as="geometry" />
        </mxCell>
        <mxCell id="EwB9a3tiwE-nJWPInOgN-65" value="yes" style="text;html=1;align=center;verticalAlign=middle;resizable=0;points=[];autosize=1;strokeColor=none;fillColor=none;" vertex="1" parent="1">
          <mxGeometry x="-288.81" y="1154" width="37" height="26" as="geometry" />
        </mxCell>
        <mxCell id="EwB9a3tiwE-nJWPInOgN-66" value="no" style="text;html=1;align=center;verticalAlign=middle;resizable=0;points=[];autosize=1;strokeColor=none;fillColor=none;" vertex="1" parent="1">
          <mxGeometry x="-577.8100000000001" y="1151" width="31" height="26" as="geometry" />
        </mxCell>
        <mxCell id="EwB9a3tiwE-nJWPInOgN-67" style="edgeStyle=orthogonalEdgeStyle;rounded=0;orthogonalLoop=1;jettySize=auto;html=1;" edge="1" parent="1" source="EwB9a3tiwE-nJWPInOgN-69">
          <mxGeometry relative="1" as="geometry">
            <mxPoint x="-384.2861904761908" y="1428.3809523809523" as="targetPoint" />
          </mxGeometry>
        </mxCell>
        <mxCell id="EwB9a3tiwE-nJWPInOgN-68" style="edgeStyle=orthogonalEdgeStyle;rounded=0;orthogonalLoop=1;jettySize=auto;html=1;entryX=1;entryY=0.5;entryDx=0;entryDy=0;" edge="1" parent="1" source="EwB9a3tiwE-nJWPInOgN-69" target="EwB9a3tiwE-nJWPInOgN-5">
          <mxGeometry relative="1" as="geometry">
            <mxPoint x="-770.0004761904762" y="1458.3809523809523" as="targetPoint" />
            <Array as="points">
              <mxPoint x="-584" y="1536" />
              <mxPoint x="893" y="1536" />
              <mxPoint x="893" y="394" />
            </Array>
          </mxGeometry>
        </mxCell>
        <mxCell id="EwB9a3tiwE-nJWPInOgN-69" value="line == &quot;print&quot;" style="rhombus;whiteSpace=wrap;html=1;" vertex="1" parent="1">
          <mxGeometry x="-685.31" y="1311" width="203" height="53" as="geometry" />
        </mxCell>
        <mxCell id="EwB9a3tiwE-nJWPInOgN-70" value="yes" style="text;html=1;align=center;verticalAlign=middle;resizable=0;points=[];autosize=1;strokeColor=none;fillColor=none;" vertex="1" parent="1">
          <mxGeometry x="-475.81" y="1302" width="37" height="26" as="geometry" />
        </mxCell>
        <mxCell id="EwB9a3tiwE-nJWPInOgN-71" value="no" style="text;html=1;align=center;verticalAlign=middle;resizable=0;points=[];autosize=1;strokeColor=none;fillColor=none;" vertex="1" parent="1">
          <mxGeometry x="-629" y="1371" width="31" height="26" as="geometry" />
        </mxCell>
        <mxCell id="EwB9a3tiwE-nJWPInOgN-82" value="END" style="ellipse;whiteSpace=wrap;html=1;" vertex="1" parent="1">
          <mxGeometry x="524" y="452" width="120" height="80" as="geometry" />
        </mxCell>
        <mxCell id="EwB9a3tiwE-nJWPInOgN-117" style="edgeStyle=orthogonalEdgeStyle;rounded=0;orthogonalLoop=1;jettySize=auto;html=1;exitX=0.5;exitY=1;exitDx=0;exitDy=0;entryX=0.5;entryY=0;entryDx=0;entryDy=0;" edge="1" parent="1" source="EwB9a3tiwE-nJWPInOgN-87" target="EwB9a3tiwE-nJWPInOgN-88">
          <mxGeometry relative="1" as="geometry" />
        </mxCell>
        <mxCell id="EwB9a3tiwE-nJWPInOgN-87" value="DCL::delNodes(Inode pointer, int n)" style="ellipse;whiteSpace=wrap;html=1;" vertex="1" parent="1">
          <mxGeometry x="1023" y="3" width="216" height="80" as="geometry" />
        </mxCell>
        <mxCell id="EwB9a3tiwE-nJWPInOgN-97" style="edgeStyle=orthogonalEdgeStyle;rounded=0;orthogonalLoop=1;jettySize=auto;html=1;exitX=1;exitY=0.5;exitDx=0;exitDy=0;entryX=0.5;entryY=0;entryDx=0;entryDy=0;" edge="1" parent="1" source="EwB9a3tiwE-nJWPInOgN-88" target="EwB9a3tiwE-nJWPInOgN-89">
          <mxGeometry relative="1" as="geometry" />
        </mxCell>
        <mxCell id="EwB9a3tiwE-nJWPInOgN-115" style="edgeStyle=orthogonalEdgeStyle;rounded=0;orthogonalLoop=1;jettySize=auto;html=1;exitX=0;exitY=0.5;exitDx=0;exitDy=0;" edge="1" parent="1" source="EwB9a3tiwE-nJWPInOgN-88">
          <mxGeometry relative="1" as="geometry">
            <mxPoint x="1043.6666666666665" y="229.66666666666674" as="targetPoint" />
          </mxGeometry>
        </mxCell>
        <mxCell id="EwB9a3tiwE-nJWPInOgN-88" value="i = 0 to n" style="rhombus;whiteSpace=wrap;html=1;" vertex="1" parent="1">
          <mxGeometry x="1091" y="124" width="80" height="55" as="geometry" />
        </mxCell>
        <mxCell id="EwB9a3tiwE-nJWPInOgN-99" style="edgeStyle=orthogonalEdgeStyle;rounded=0;orthogonalLoop=1;jettySize=auto;html=1;exitX=0.5;exitY=1;exitDx=0;exitDy=0;entryX=0.5;entryY=0;entryDx=0;entryDy=0;" edge="1" parent="1" source="EwB9a3tiwE-nJWPInOgN-89" target="EwB9a3tiwE-nJWPInOgN-90">
          <mxGeometry relative="1" as="geometry" />
        </mxCell>
        <mxCell id="EwB9a3tiwE-nJWPInOgN-89" value="&lt;br&gt;&lt;span style=&quot;color: rgb(0, 0, 0); font-family: Helvetica; font-size: 12px; font-style: normal; font-variant-ligatures: normal; font-variant-caps: normal; font-weight: 400; letter-spacing: normal; orphans: 2; text-align: center; text-indent: 0px; text-transform: none; widows: 2; word-spacing: 0px; -webkit-text-stroke-width: 0px; white-space: normal; background-color: rgb(255, 255, 255); text-decoration-thickness: initial; text-decoration-style: initial; text-decoration-color: initial; display: inline !important; float: none;&quot;&gt;Node *toDelete = *pointer;&lt;/span&gt;&lt;br style=&quot;forced-color-adjust: none; color: rgb(0, 0, 0); font-family: Helvetica; font-size: 12px; font-style: normal; font-variant-ligatures: normal; font-variant-caps: normal; font-weight: 400; letter-spacing: normal; orphans: 2; text-align: center; text-indent: 0px; text-transform: none; widows: 2; word-spacing: 0px; -webkit-text-stroke-width: 0px; white-space: normal; background-color: rgb(255, 255, 255); text-decoration-thickness: initial; text-decoration-style: initial; text-decoration-color: initial;&quot;&gt;&lt;span style=&quot;color: rgb(0, 0, 0); font-family: Helvetica; font-size: 12px; font-style: normal; font-variant-ligatures: normal; font-variant-caps: normal; font-weight: 400; letter-spacing: normal; orphans: 2; text-align: center; text-indent: 0px; text-transform: none; widows: 2; word-spacing: 0px; -webkit-text-stroke-width: 0px; white-space: normal; background-color: rgb(255, 255, 255); text-decoration-thickness: initial; text-decoration-style: initial; text-decoration-color: initial; display: inline !important; float: none;&quot;&gt;&amp;nbsp; &amp;nbsp; &amp;nbsp;pointer = pointer + 1;&lt;/span&gt;&lt;div&gt;&lt;br/&gt;&lt;/div&gt;" style="rounded=0;whiteSpace=wrap;html=1;" vertex="1" parent="1">
          <mxGeometry x="1312" y="212" width="180" height="60" as="geometry" />
        </mxCell>
        <mxCell id="EwB9a3tiwE-nJWPInOgN-100" style="edgeStyle=orthogonalEdgeStyle;rounded=0;orthogonalLoop=1;jettySize=auto;html=1;exitX=1;exitY=0.5;exitDx=0;exitDy=0;entryX=0.5;entryY=0;entryDx=0;entryDy=0;" edge="1" parent="1" source="EwB9a3tiwE-nJWPInOgN-90" target="EwB9a3tiwE-nJWPInOgN-91">
          <mxGeometry relative="1" as="geometry" />
        </mxCell>
        <mxCell id="EwB9a3tiwE-nJWPInOgN-105" style="edgeStyle=orthogonalEdgeStyle;rounded=0;orthogonalLoop=1;jettySize=auto;html=1;exitX=0;exitY=0.5;exitDx=0;exitDy=0;entryX=0.5;entryY=0;entryDx=0;entryDy=0;" edge="1" parent="1" source="EwB9a3tiwE-nJWPInOgN-90" target="EwB9a3tiwE-nJWPInOgN-92">
          <mxGeometry relative="1" as="geometry" />
        </mxCell>
        <mxCell id="EwB9a3tiwE-nJWPInOgN-90" value="&#xa;&lt;span style=&quot;color: rgb(0, 0, 0); font-family: Helvetica; font-size: 12px; font-style: normal; font-variant-ligatures: normal; font-variant-caps: normal; font-weight: 400; letter-spacing: normal; orphans: 2; text-align: center; text-indent: 0px; text-transform: none; widows: 2; word-spacing: 0px; -webkit-text-stroke-width: 0px; white-space: normal; background-color: rgb(255, 255, 255); text-decoration-thickness: initial; text-decoration-style: initial; text-decoration-color: initial; display: inline !important; float: none;&quot;&gt;(toDelete-&amp;gt;prev)&lt;/span&gt;&#xa;&#xa;" style="rhombus;whiteSpace=wrap;html=1;" vertex="1" parent="1">
          <mxGeometry x="1331" y="309" width="153" height="80" as="geometry" />
        </mxCell>
        <mxCell id="EwB9a3tiwE-nJWPInOgN-102" style="edgeStyle=orthogonalEdgeStyle;rounded=0;orthogonalLoop=1;jettySize=auto;html=1;exitX=0.5;exitY=1;exitDx=0;exitDy=0;entryX=0.5;entryY=0;entryDx=0;entryDy=0;" edge="1" parent="1" source="EwB9a3tiwE-nJWPInOgN-91" target="EwB9a3tiwE-nJWPInOgN-93">
          <mxGeometry relative="1" as="geometry" />
        </mxCell>
        <mxCell id="EwB9a3tiwE-nJWPInOgN-91" value="toDelete-&amp;gt;prev-&amp;gt;next = toDelete-&amp;gt;next" style="rounded=0;whiteSpace=wrap;html=1;" vertex="1" parent="1">
          <mxGeometry x="1500" y="434" width="232" height="60" as="geometry" />
        </mxCell>
        <mxCell id="EwB9a3tiwE-nJWPInOgN-103" style="edgeStyle=orthogonalEdgeStyle;rounded=0;orthogonalLoop=1;jettySize=auto;html=1;exitX=0.5;exitY=1;exitDx=0;exitDy=0;" edge="1" parent="1" source="EwB9a3tiwE-nJWPInOgN-92" target="EwB9a3tiwE-nJWPInOgN-93">
          <mxGeometry relative="1" as="geometry" />
        </mxCell>
        <mxCell id="EwB9a3tiwE-nJWPInOgN-92" value="first = toDelete-&amp;gt;next" style="rounded=0;whiteSpace=wrap;html=1;" vertex="1" parent="1">
          <mxGeometry x="1192" y="434" width="120" height="60" as="geometry" />
        </mxCell>
        <mxCell id="EwB9a3tiwE-nJWPInOgN-108" style="edgeStyle=orthogonalEdgeStyle;rounded=0;orthogonalLoop=1;jettySize=auto;html=1;exitX=1;exitY=0.5;exitDx=0;exitDy=0;" edge="1" parent="1" source="EwB9a3tiwE-nJWPInOgN-93" target="EwB9a3tiwE-nJWPInOgN-94">
          <mxGeometry relative="1" as="geometry" />
        </mxCell>
        <mxCell id="EwB9a3tiwE-nJWPInOgN-110" style="edgeStyle=orthogonalEdgeStyle;rounded=0;orthogonalLoop=1;jettySize=auto;html=1;exitX=0;exitY=0.5;exitDx=0;exitDy=0;entryX=0.5;entryY=0;entryDx=0;entryDy=0;" edge="1" parent="1" source="EwB9a3tiwE-nJWPInOgN-93" target="EwB9a3tiwE-nJWPInOgN-95">
          <mxGeometry relative="1" as="geometry" />
        </mxCell>
        <mxCell id="EwB9a3tiwE-nJWPInOgN-93" value="&lt;br&gt;&lt;span style=&quot;color: rgb(0, 0, 0); font-family: Helvetica; font-size: 12px; font-style: normal; font-variant-ligatures: normal; font-variant-caps: normal; font-weight: 400; letter-spacing: normal; orphans: 2; text-align: center; text-indent: 0px; text-transform: none; widows: 2; word-spacing: 0px; -webkit-text-stroke-width: 0px; white-space: normal; background-color: rgb(255, 255, 255); text-decoration-thickness: initial; text-decoration-style: initial; text-decoration-color: initial; display: inline !important; float: none;&quot;&gt;(toDelete-&amp;gt;next)&lt;/span&gt;&lt;div&gt;&lt;br/&gt;&lt;/div&gt;" style="rhombus;whiteSpace=wrap;html=1;" vertex="1" parent="1">
          <mxGeometry x="1327" y="543" width="153" height="80" as="geometry" />
        </mxCell>
        <mxCell id="EwB9a3tiwE-nJWPInOgN-112" style="edgeStyle=orthogonalEdgeStyle;rounded=0;orthogonalLoop=1;jettySize=auto;html=1;exitX=0.5;exitY=1;exitDx=0;exitDy=0;" edge="1" parent="1" source="EwB9a3tiwE-nJWPInOgN-94" target="EwB9a3tiwE-nJWPInOgN-96">
          <mxGeometry relative="1" as="geometry" />
        </mxCell>
        <mxCell id="EwB9a3tiwE-nJWPInOgN-94" value="toDelete-&amp;gt;next-&amp;gt;prev = toDelete-&amp;gt;prev" style="rounded=0;whiteSpace=wrap;html=1;" vertex="1" parent="1">
          <mxGeometry x="1496" y="668" width="232" height="60" as="geometry" />
        </mxCell>
        <mxCell id="EwB9a3tiwE-nJWPInOgN-113" style="edgeStyle=orthogonalEdgeStyle;rounded=0;orthogonalLoop=1;jettySize=auto;html=1;exitX=0.5;exitY=1;exitDx=0;exitDy=0;" edge="1" parent="1" source="EwB9a3tiwE-nJWPInOgN-95" target="EwB9a3tiwE-nJWPInOgN-96">
          <mxGeometry relative="1" as="geometry" />
        </mxCell>
        <mxCell id="EwB9a3tiwE-nJWPInOgN-95" value="last = toDelete-&amp;gt;prev" style="rounded=0;whiteSpace=wrap;html=1;" vertex="1" parent="1">
          <mxGeometry x="1188" y="668" width="120" height="60" as="geometry" />
        </mxCell>
        <mxCell id="EwB9a3tiwE-nJWPInOgN-114" style="edgeStyle=orthogonalEdgeStyle;rounded=0;orthogonalLoop=1;jettySize=auto;html=1;exitX=0.5;exitY=1;exitDx=0;exitDy=0;entryX=0.5;entryY=1;entryDx=0;entryDy=0;" edge="1" parent="1" source="EwB9a3tiwE-nJWPInOgN-96" target="EwB9a3tiwE-nJWPInOgN-88">
          <mxGeometry relative="1" as="geometry" />
        </mxCell>
        <mxCell id="EwB9a3tiwE-nJWPInOgN-96" value="delete toDelete&lt;div&gt;--size&lt;/div&gt;" style="rounded=0;whiteSpace=wrap;html=1;" vertex="1" parent="1">
          <mxGeometry x="1342" y="798" width="120" height="60" as="geometry" />
        </mxCell>
        <mxCell id="EwB9a3tiwE-nJWPInOgN-98" value="yes" style="text;html=1;align=center;verticalAlign=middle;resizable=0;points=[];autosize=1;strokeColor=none;fillColor=none;" vertex="1" parent="1">
          <mxGeometry x="1155" y="108" width="37" height="26" as="geometry" />
        </mxCell>
        <mxCell id="EwB9a3tiwE-nJWPInOgN-101" value="yes" style="text;html=1;align=center;verticalAlign=middle;resizable=0;points=[];autosize=1;strokeColor=none;fillColor=none;" vertex="1" parent="1">
          <mxGeometry x="1495" y="317" width="37" height="26" as="geometry" />
        </mxCell>
        <mxCell id="EwB9a3tiwE-nJWPInOgN-106" value="no" style="text;html=1;align=center;verticalAlign=middle;resizable=0;points=[];autosize=1;strokeColor=none;fillColor=none;" vertex="1" parent="1">
          <mxGeometry x="1286" y="323" width="31" height="26" as="geometry" />
        </mxCell>
        <mxCell id="EwB9a3tiwE-nJWPInOgN-109" value="yes" style="text;html=1;align=center;verticalAlign=middle;resizable=0;points=[];autosize=1;strokeColor=none;fillColor=none;" vertex="1" parent="1">
          <mxGeometry x="1489" y="554" width="37" height="26" as="geometry" />
        </mxCell>
        <mxCell id="EwB9a3tiwE-nJWPInOgN-111" value="no" style="text;html=1;align=center;verticalAlign=middle;resizable=0;points=[];autosize=1;strokeColor=none;fillColor=none;" vertex="1" parent="1">
          <mxGeometry x="1287" y="548" width="31" height="26" as="geometry" />
        </mxCell>
        <mxCell id="EwB9a3tiwE-nJWPInOgN-116" value="return" style="ellipse;whiteSpace=wrap;html=1;" vertex="1" parent="1">
          <mxGeometry x="983" y="229" width="120" height="80" as="geometry" />
        </mxCell>
        <mxCell id="EwB9a3tiwE-nJWPInOgN-129" style="edgeStyle=orthogonalEdgeStyle;rounded=0;orthogonalLoop=1;jettySize=auto;html=1;exitX=0.5;exitY=1;exitDx=0;exitDy=0;entryX=0.5;entryY=0;entryDx=0;entryDy=0;" edge="1" parent="1" source="EwB9a3tiwE-nJWPInOgN-119" target="EwB9a3tiwE-nJWPInOgN-120">
          <mxGeometry relative="1" as="geometry" />
        </mxCell>
        <mxCell id="EwB9a3tiwE-nJWPInOgN-119" value="SCL::insert(int index, T data)" style="ellipse;whiteSpace=wrap;html=1;" vertex="1" parent="1">
          <mxGeometry x="2264" y="6" width="213" height="80" as="geometry" />
        </mxCell>
        <mxCell id="EwB9a3tiwE-nJWPInOgN-132" style="edgeStyle=orthogonalEdgeStyle;rounded=0;orthogonalLoop=1;jettySize=auto;html=1;exitX=0.5;exitY=1;exitDx=0;exitDy=0;entryX=0.5;entryY=0;entryDx=0;entryDy=0;" edge="1" parent="1" source="EwB9a3tiwE-nJWPInOgN-120" target="EwB9a3tiwE-nJWPInOgN-121">
          <mxGeometry relative="1" as="geometry" />
        </mxCell>
        <mxCell id="EwB9a3tiwE-nJWPInOgN-120" value="Node *node = new Node{data, nullptr, nullptr}" style="shape=process;whiteSpace=wrap;html=1;backgroundOutline=1;" vertex="1" parent="1">
          <mxGeometry x="2214" y="125" width="317" height="60" as="geometry" />
        </mxCell>
        <mxCell id="EwB9a3tiwE-nJWPInOgN-133" style="edgeStyle=orthogonalEdgeStyle;rounded=0;orthogonalLoop=1;jettySize=auto;html=1;exitX=1;exitY=0.5;exitDx=0;exitDy=0;entryX=0.5;entryY=0;entryDx=0;entryDy=0;" edge="1" parent="1" source="EwB9a3tiwE-nJWPInOgN-121" target="EwB9a3tiwE-nJWPInOgN-122">
          <mxGeometry relative="1" as="geometry" />
        </mxCell>
        <mxCell id="EwB9a3tiwE-nJWPInOgN-134" value="yes" style="edgeLabel;html=1;align=center;verticalAlign=middle;resizable=0;points=[];" vertex="1" connectable="0" parent="EwB9a3tiwE-nJWPInOgN-133">
          <mxGeometry x="-0.6619" y="9" relative="1" as="geometry">
            <mxPoint as="offset" />
          </mxGeometry>
        </mxCell>
        <mxCell id="EwB9a3tiwE-nJWPInOgN-135" style="edgeStyle=orthogonalEdgeStyle;rounded=0;orthogonalLoop=1;jettySize=auto;html=1;exitX=0;exitY=0.5;exitDx=0;exitDy=0;entryX=0.5;entryY=0;entryDx=0;entryDy=0;" edge="1" parent="1" source="EwB9a3tiwE-nJWPInOgN-121" target="EwB9a3tiwE-nJWPInOgN-123">
          <mxGeometry relative="1" as="geometry" />
        </mxCell>
        <mxCell id="EwB9a3tiwE-nJWPInOgN-136" value="no" style="edgeLabel;html=1;align=center;verticalAlign=middle;resizable=0;points=[];" vertex="1" connectable="0" parent="EwB9a3tiwE-nJWPInOgN-135">
          <mxGeometry x="-0.1903" y="-2" relative="1" as="geometry">
            <mxPoint as="offset" />
          </mxGeometry>
        </mxCell>
        <mxCell id="EwB9a3tiwE-nJWPInOgN-121" value="size == 0" style="rhombus;whiteSpace=wrap;html=1;" vertex="1" parent="1">
          <mxGeometry x="2332.5" y="233" width="80" height="80" as="geometry" />
        </mxCell>
        <mxCell id="EwB9a3tiwE-nJWPInOgN-150" style="edgeStyle=orthogonalEdgeStyle;rounded=0;orthogonalLoop=1;jettySize=auto;html=1;exitX=0.5;exitY=1;exitDx=0;exitDy=0;" edge="1" parent="1" source="EwB9a3tiwE-nJWPInOgN-122" target="EwB9a3tiwE-nJWPInOgN-130">
          <mxGeometry relative="1" as="geometry" />
        </mxCell>
        <mxCell id="EwB9a3tiwE-nJWPInOgN-122" value="first = last = node" style="rounded=0;whiteSpace=wrap;html=1;" vertex="1" parent="1">
          <mxGeometry x="2431" y="340" width="120" height="60" as="geometry" />
        </mxCell>
        <mxCell id="EwB9a3tiwE-nJWPInOgN-137" style="edgeStyle=orthogonalEdgeStyle;rounded=0;orthogonalLoop=1;jettySize=auto;html=1;exitX=1;exitY=0.5;exitDx=0;exitDy=0;entryX=0.5;entryY=0;entryDx=0;entryDy=0;" edge="1" parent="1" source="EwB9a3tiwE-nJWPInOgN-123" target="EwB9a3tiwE-nJWPInOgN-124">
          <mxGeometry relative="1" as="geometry" />
        </mxCell>
        <mxCell id="EwB9a3tiwE-nJWPInOgN-139" style="edgeStyle=orthogonalEdgeStyle;rounded=0;orthogonalLoop=1;jettySize=auto;html=1;exitX=0;exitY=0.5;exitDx=0;exitDy=0;entryX=0.5;entryY=0;entryDx=0;entryDy=0;" edge="1" parent="1" source="EwB9a3tiwE-nJWPInOgN-123" target="EwB9a3tiwE-nJWPInOgN-125">
          <mxGeometry relative="1" as="geometry" />
        </mxCell>
        <mxCell id="EwB9a3tiwE-nJWPInOgN-123" value="index == 0" style="rhombus;whiteSpace=wrap;html=1;" vertex="1" parent="1">
          <mxGeometry x="2219" y="334" width="80" height="80" as="geometry" />
        </mxCell>
        <mxCell id="EwB9a3tiwE-nJWPInOgN-149" style="edgeStyle=orthogonalEdgeStyle;rounded=0;orthogonalLoop=1;jettySize=auto;html=1;exitX=0.5;exitY=1;exitDx=0;exitDy=0;" edge="1" parent="1" source="EwB9a3tiwE-nJWPInOgN-124" target="EwB9a3tiwE-nJWPInOgN-130">
          <mxGeometry relative="1" as="geometry">
            <Array as="points">
              <mxPoint x="2340" y="530" />
            </Array>
          </mxGeometry>
        </mxCell>
        <mxCell id="EwB9a3tiwE-nJWPInOgN-124" value="&amp;nbsp;node-&amp;gt;next = this-&amp;gt;first;&lt;br&gt;&amp;nbsp;first-&amp;gt;prev = node;&lt;br&gt;first = node;" style="rounded=0;whiteSpace=wrap;html=1;" vertex="1" parent="1">
          <mxGeometry x="2276" y="446" width="148" height="84" as="geometry" />
        </mxCell>
        <mxCell id="EwB9a3tiwE-nJWPInOgN-141" style="edgeStyle=orthogonalEdgeStyle;rounded=0;orthogonalLoop=1;jettySize=auto;html=1;exitX=1;exitY=0.5;exitDx=0;exitDy=0;entryX=0.5;entryY=0;entryDx=0;entryDy=0;" edge="1" parent="1" source="EwB9a3tiwE-nJWPInOgN-125" target="EwB9a3tiwE-nJWPInOgN-126">
          <mxGeometry relative="1" as="geometry" />
        </mxCell>
        <mxCell id="EwB9a3tiwE-nJWPInOgN-142" value="yes" style="edgeLabel;html=1;align=center;verticalAlign=middle;resizable=0;points=[];" vertex="1" connectable="0" parent="EwB9a3tiwE-nJWPInOgN-141">
          <mxGeometry x="-0.5689" y="7" relative="1" as="geometry">
            <mxPoint as="offset" />
          </mxGeometry>
        </mxCell>
        <mxCell id="EwB9a3tiwE-nJWPInOgN-143" style="edgeStyle=orthogonalEdgeStyle;rounded=0;orthogonalLoop=1;jettySize=auto;html=1;exitX=0;exitY=0.5;exitDx=0;exitDy=0;entryX=0.5;entryY=0;entryDx=0;entryDy=0;" edge="1" parent="1" source="EwB9a3tiwE-nJWPInOgN-125" target="EwB9a3tiwE-nJWPInOgN-127">
          <mxGeometry relative="1" as="geometry" />
        </mxCell>
        <mxCell id="EwB9a3tiwE-nJWPInOgN-125" value="index == size" style="rhombus;whiteSpace=wrap;html=1;" vertex="1" parent="1">
          <mxGeometry x="2023" y="446" width="117" height="80" as="geometry" />
        </mxCell>
        <mxCell id="EwB9a3tiwE-nJWPInOgN-148" style="edgeStyle=orthogonalEdgeStyle;rounded=0;orthogonalLoop=1;jettySize=auto;html=1;exitX=0.5;exitY=1;exitDx=0;exitDy=0;entryX=0.5;entryY=0;entryDx=0;entryDy=0;" edge="1" parent="1" source="EwB9a3tiwE-nJWPInOgN-126" target="EwB9a3tiwE-nJWPInOgN-130">
          <mxGeometry relative="1" as="geometry">
            <Array as="points">
              <mxPoint x="2219" y="735" />
              <mxPoint x="2340" y="735" />
            </Array>
          </mxGeometry>
        </mxCell>
        <mxCell id="EwB9a3tiwE-nJWPInOgN-126" value="node-&amp;gt;prev = this-&amp;gt;last;&lt;div&gt;last-&amp;gt;next = node;&lt;/div&gt;&lt;div&gt;&amp;nbsp;last = node&lt;/div&gt;" style="rounded=0;whiteSpace=wrap;html=1;" vertex="1" parent="1">
          <mxGeometry x="2144" y="584" width="149" height="83" as="geometry" />
        </mxCell>
        <mxCell id="EwB9a3tiwE-nJWPInOgN-145" style="edgeStyle=orthogonalEdgeStyle;rounded=0;orthogonalLoop=1;jettySize=auto;html=1;exitX=0.5;exitY=1;exitDx=0;exitDy=0;entryX=0.5;entryY=0;entryDx=0;entryDy=0;" edge="1" parent="1" source="EwB9a3tiwE-nJWPInOgN-127" target="EwB9a3tiwE-nJWPInOgN-128">
          <mxGeometry relative="1" as="geometry" />
        </mxCell>
        <mxCell id="EwB9a3tiwE-nJWPInOgN-127" value="Inode pointer = this-&amp;gt;begin() + index;" style="shape=process;whiteSpace=wrap;html=1;backgroundOutline=1;" vertex="1" parent="1">
          <mxGeometry x="1773" y="584" width="283" height="60" as="geometry" />
        </mxCell>
        <mxCell id="EwB9a3tiwE-nJWPInOgN-146" style="edgeStyle=orthogonalEdgeStyle;rounded=0;orthogonalLoop=1;jettySize=auto;html=1;exitX=1;exitY=0.5;exitDx=0;exitDy=0;entryX=0.5;entryY=0;entryDx=0;entryDy=0;" edge="1" parent="1" source="EwB9a3tiwE-nJWPInOgN-128" target="EwB9a3tiwE-nJWPInOgN-130">
          <mxGeometry relative="1" as="geometry" />
        </mxCell>
        <mxCell id="EwB9a3tiwE-nJWPInOgN-128" value="node-&amp;gt;next = *pointer;&lt;br&gt;&amp;nbsp; &amp;nbsp; &amp;nbsp; &amp;nbsp; &amp;nbsp; &amp;nbsp; node-&amp;gt;prev = (*pointer)-&amp;gt;prev;&lt;br&gt;&amp;nbsp; &amp;nbsp; &amp;nbsp; &amp;nbsp; &amp;nbsp; &amp;nbsp; (*pointer)-&amp;gt;prev-&amp;gt;next = node;&lt;br&gt;&amp;nbsp; &amp;nbsp; &amp;nbsp; &amp;nbsp; &amp;nbsp; &amp;nbsp; (*pointer)-&amp;gt;prev = node;" style="rounded=0;whiteSpace=wrap;html=1;" vertex="1" parent="1">
          <mxGeometry x="1808" y="681" width="218" height="109" as="geometry" />
        </mxCell>
        <mxCell id="EwB9a3tiwE-nJWPInOgN-151" style="edgeStyle=orthogonalEdgeStyle;rounded=0;orthogonalLoop=1;jettySize=auto;html=1;exitX=0.5;exitY=1;exitDx=0;exitDy=0;entryX=0.5;entryY=0;entryDx=0;entryDy=0;" edge="1" parent="1" source="EwB9a3tiwE-nJWPInOgN-130" target="EwB9a3tiwE-nJWPInOgN-131">
          <mxGeometry relative="1" as="geometry" />
        </mxCell>
        <mxCell id="EwB9a3tiwE-nJWPInOgN-130" value="++size" style="rounded=0;whiteSpace=wrap;html=1;" vertex="1" parent="1">
          <mxGeometry x="2280" y="826" width="120" height="60" as="geometry" />
        </mxCell>
        <mxCell id="EwB9a3tiwE-nJWPInOgN-131" value="return" style="ellipse;whiteSpace=wrap;html=1;" vertex="1" parent="1">
          <mxGeometry x="2280" y="918" width="120" height="80" as="geometry" />
        </mxCell>
        <mxCell id="EwB9a3tiwE-nJWPInOgN-138" value="yes" style="text;html=1;align=center;verticalAlign=middle;resizable=0;points=[];autosize=1;strokeColor=none;fillColor=none;" vertex="1" parent="1">
          <mxGeometry x="2295" y="346" width="37" height="26" as="geometry" />
        </mxCell>
        <mxCell id="EwB9a3tiwE-nJWPInOgN-140" value="no" style="text;html=1;align=center;verticalAlign=middle;resizable=0;points=[];autosize=1;strokeColor=none;fillColor=none;" vertex="1" parent="1">
          <mxGeometry x="2166" y="346" width="31" height="26" as="geometry" />
        </mxCell>
        <mxCell id="EwB9a3tiwE-nJWPInOgN-144" value="no" style="text;html=1;align=center;verticalAlign=middle;resizable=0;points=[];autosize=1;strokeColor=none;fillColor=none;" vertex="1" parent="1">
          <mxGeometry x="1990" y="454" width="31" height="26" as="geometry" />
        </mxCell>
        <mxCell id="EwB9a3tiwE-nJWPInOgN-160" style="edgeStyle=orthogonalEdgeStyle;rounded=0;orthogonalLoop=1;jettySize=auto;html=1;exitX=0.5;exitY=1;exitDx=0;exitDy=0;entryX=0.5;entryY=0;entryDx=0;entryDy=0;" edge="1" parent="1" source="EwB9a3tiwE-nJWPInOgN-152" target="EwB9a3tiwE-nJWPInOgN-154">
          <mxGeometry relative="1" as="geometry" />
        </mxCell>
        <mxCell id="EwB9a3tiwE-nJWPInOgN-152" value="DCL::operator&amp;lt;&amp;lt;(string separator" style="ellipse;whiteSpace=wrap;html=1;" vertex="1" parent="1">
          <mxGeometry x="1142" y="1023" width="202" height="80" as="geometry" />
        </mxCell>
        <mxCell id="EwB9a3tiwE-nJWPInOgN-161" style="edgeStyle=orthogonalEdgeStyle;rounded=0;orthogonalLoop=1;jettySize=auto;html=1;exitX=0.5;exitY=1;exitDx=0;exitDy=0;entryX=0.5;entryY=0;entryDx=0;entryDy=0;" edge="1" parent="1" source="EwB9a3tiwE-nJWPInOgN-154" target="EwB9a3tiwE-nJWPInOgN-155">
          <mxGeometry relative="1" as="geometry" />
        </mxCell>
        <mxCell id="EwB9a3tiwE-nJWPInOgN-154" value="Node *node = this-&amp;gt;first" style="rounded=0;whiteSpace=wrap;html=1;" vertex="1" parent="1">
          <mxGeometry x="1157.5" y="1130" width="171" height="60" as="geometry" />
        </mxCell>
        <mxCell id="EwB9a3tiwE-nJWPInOgN-164" style="edgeStyle=orthogonalEdgeStyle;rounded=0;orthogonalLoop=1;jettySize=auto;html=1;exitX=0;exitY=0.5;exitDx=0;exitDy=0;entryX=0.5;entryY=0;entryDx=0;entryDy=0;" edge="1" parent="1" source="EwB9a3tiwE-nJWPInOgN-155" target="EwB9a3tiwE-nJWPInOgN-158">
          <mxGeometry relative="1" as="geometry" />
        </mxCell>
        <mxCell id="EwB9a3tiwE-nJWPInOgN-155" value="node != nullptr" style="rhombus;whiteSpace=wrap;html=1;" vertex="1" parent="1">
          <mxGeometry x="1181" y="1225" width="125" height="80" as="geometry" />
        </mxCell>
        <mxCell id="EwB9a3tiwE-nJWPInOgN-167" style="edgeStyle=orthogonalEdgeStyle;rounded=0;orthogonalLoop=1;jettySize=auto;html=1;exitX=0.5;exitY=1;exitDx=0;exitDy=0;entryX=0.5;entryY=0;entryDx=0;entryDy=0;" edge="1" parent="1" source="EwB9a3tiwE-nJWPInOgN-156" target="EwB9a3tiwE-nJWPInOgN-157">
          <mxGeometry relative="1" as="geometry" />
        </mxCell>
        <mxCell id="EwB9a3tiwE-nJWPInOgN-156" value="output node-&amp;gt;data &amp;lt;&amp;lt; separator" style="shape=parallelogram;perimeter=parallelogramPerimeter;whiteSpace=wrap;html=1;fixedSize=1;" vertex="1" parent="1">
          <mxGeometry x="1275" y="1350" width="220" height="60" as="geometry" />
        </mxCell>
        <mxCell id="EwB9a3tiwE-nJWPInOgN-168" style="edgeStyle=orthogonalEdgeStyle;rounded=0;orthogonalLoop=1;jettySize=auto;html=1;exitX=0;exitY=0.5;exitDx=0;exitDy=0;entryX=0.5;entryY=1;entryDx=0;entryDy=0;" edge="1" parent="1" source="EwB9a3tiwE-nJWPInOgN-157" target="EwB9a3tiwE-nJWPInOgN-155">
          <mxGeometry relative="1" as="geometry" />
        </mxCell>
        <mxCell id="EwB9a3tiwE-nJWPInOgN-157" value="node = node-&amp;gt;next" style="rounded=0;whiteSpace=wrap;html=1;" vertex="1" parent="1">
          <mxGeometry x="1314" y="1444" width="131" height="60" as="geometry" />
        </mxCell>
        <mxCell id="EwB9a3tiwE-nJWPInOgN-166" style="edgeStyle=orthogonalEdgeStyle;rounded=0;orthogonalLoop=1;jettySize=auto;html=1;exitX=0.5;exitY=1;exitDx=0;exitDy=0;entryX=0.5;entryY=0;entryDx=0;entryDy=0;" edge="1" parent="1" source="EwB9a3tiwE-nJWPInOgN-158" target="EwB9a3tiwE-nJWPInOgN-159">
          <mxGeometry relative="1" as="geometry" />
        </mxCell>
        <mxCell id="EwB9a3tiwE-nJWPInOgN-158" value="output line end" style="shape=parallelogram;perimeter=parallelogramPerimeter;whiteSpace=wrap;html=1;fixedSize=1;" vertex="1" parent="1">
          <mxGeometry x="1009" y="1357" width="120" height="60" as="geometry" />
        </mxCell>
        <mxCell id="EwB9a3tiwE-nJWPInOgN-159" value="return this" style="ellipse;whiteSpace=wrap;html=1;" vertex="1" parent="1">
          <mxGeometry x="1009" y="1465" width="120" height="80" as="geometry" />
        </mxCell>
        <mxCell id="EwB9a3tiwE-nJWPInOgN-162" style="edgeStyle=orthogonalEdgeStyle;rounded=0;orthogonalLoop=1;jettySize=auto;html=1;exitX=1;exitY=0.5;exitDx=0;exitDy=0;entryX=0.5;entryY=0;entryDx=0;entryDy=0;" edge="1" parent="1" source="EwB9a3tiwE-nJWPInOgN-155" target="EwB9a3tiwE-nJWPInOgN-156">
          <mxGeometry relative="1" as="geometry" />
        </mxCell>
        <mxCell id="EwB9a3tiwE-nJWPInOgN-163" value="yes" style="text;html=1;align=center;verticalAlign=middle;resizable=0;points=[];autosize=1;strokeColor=none;fillColor=none;" vertex="1" parent="1">
          <mxGeometry x="1320" y="1239" width="37" height="26" as="geometry" />
        </mxCell>
        <mxCell id="EwB9a3tiwE-nJWPInOgN-165" value="no" style="text;html=1;align=center;verticalAlign=middle;resizable=0;points=[];autosize=1;strokeColor=none;fillColor=none;" vertex="1" parent="1">
          <mxGeometry x="1129" y="1243" width="31" height="26" as="geometry" />
        </mxCell>
        <mxCell id="EwB9a3tiwE-nJWPInOgN-172" style="edgeStyle=orthogonalEdgeStyle;rounded=0;orthogonalLoop=1;jettySize=auto;html=1;exitX=0.5;exitY=1;exitDx=0;exitDy=0;entryX=0.5;entryY=0;entryDx=0;entryDy=0;" edge="1" parent="1" source="EwB9a3tiwE-nJWPInOgN-169" target="EwB9a3tiwE-nJWPInOgN-171">
          <mxGeometry relative="1" as="geometry" />
        </mxCell>
        <mxCell id="EwB9a3tiwE-nJWPInOgN-169" value="DCL::begin()" style="ellipse;whiteSpace=wrap;html=1;" vertex="1" parent="1">
          <mxGeometry x="1581" y="999" width="120" height="80" as="geometry" />
        </mxCell>
        <mxCell id="EwB9a3tiwE-nJWPInOgN-170" value="return a" style="ellipse;whiteSpace=wrap;html=1;" vertex="1" parent="1">
          <mxGeometry x="1581" y="1183" width="120" height="80" as="geometry" />
        </mxCell>
        <mxCell id="EwB9a3tiwE-nJWPInOgN-173" style="edgeStyle=orthogonalEdgeStyle;rounded=0;orthogonalLoop=1;jettySize=auto;html=1;exitX=0.5;exitY=1;exitDx=0;exitDy=0;entryX=0.5;entryY=0;entryDx=0;entryDy=0;" edge="1" parent="1" source="EwB9a3tiwE-nJWPInOgN-171" target="EwB9a3tiwE-nJWPInOgN-170">
          <mxGeometry relative="1" as="geometry" />
        </mxCell>
        <mxCell id="EwB9a3tiwE-nJWPInOgN-171" value="a = Inode(first)" style="shape=process;whiteSpace=wrap;html=1;backgroundOutline=1;" vertex="1" parent="1">
          <mxGeometry x="1581" y="1106" width="120" height="60" as="geometry" />
        </mxCell>
        <mxCell id="EwB9a3tiwE-nJWPInOgN-176" style="edgeStyle=orthogonalEdgeStyle;rounded=0;orthogonalLoop=1;jettySize=auto;html=1;exitX=0.5;exitY=1;exitDx=0;exitDy=0;entryX=0.5;entryY=0;entryDx=0;entryDy=0;" edge="1" parent="1" source="EwB9a3tiwE-nJWPInOgN-174" target="EwB9a3tiwE-nJWPInOgN-175">
          <mxGeometry relative="1" as="geometry" />
        </mxCell>
        <mxCell id="EwB9a3tiwE-nJWPInOgN-174" value="DCL::DCL()" style="ellipse;whiteSpace=wrap;html=1;" vertex="1" parent="1">
          <mxGeometry x="1817" y="1044" width="120" height="80" as="geometry" />
        </mxCell>
        <mxCell id="EwB9a3tiwE-nJWPInOgN-178" style="edgeStyle=orthogonalEdgeStyle;rounded=0;orthogonalLoop=1;jettySize=auto;html=1;exitX=0.5;exitY=1;exitDx=0;exitDy=0;entryX=0.5;entryY=0;entryDx=0;entryDy=0;" edge="1" parent="1" source="EwB9a3tiwE-nJWPInOgN-175" target="EwB9a3tiwE-nJWPInOgN-177">
          <mxGeometry relative="1" as="geometry" />
        </mxCell>
        <mxCell id="EwB9a3tiwE-nJWPInOgN-175" value="first = nullptr&lt;div&gt;last = nullptr&lt;/div&gt;&lt;div&gt;size = 0&lt;/div&gt;" style="rounded=0;whiteSpace=wrap;html=1;" vertex="1" parent="1">
          <mxGeometry x="1817" y="1159" width="120" height="60" as="geometry" />
        </mxCell>
        <mxCell id="EwB9a3tiwE-nJWPInOgN-177" value="return" style="ellipse;whiteSpace=wrap;html=1;" vertex="1" parent="1">
          <mxGeometry x="1817" y="1241" width="120" height="80" as="geometry" />
        </mxCell>
        <mxCell id="EwB9a3tiwE-nJWPInOgN-184" style="edgeStyle=orthogonalEdgeStyle;rounded=0;orthogonalLoop=1;jettySize=auto;html=1;exitX=0.5;exitY=1;exitDx=0;exitDy=0;entryX=0.5;entryY=0;entryDx=0;entryDy=0;" edge="1" parent="1" source="EwB9a3tiwE-nJWPInOgN-179" target="EwB9a3tiwE-nJWPInOgN-180">
          <mxGeometry relative="1" as="geometry" />
        </mxCell>
        <mxCell id="EwB9a3tiwE-nJWPInOgN-179" value="Inode::Inode(Node* node)" style="ellipse;whiteSpace=wrap;html=1;" vertex="1" parent="1">
          <mxGeometry x="2017" y="1044" width="161" height="80" as="geometry" />
        </mxCell>
        <mxCell id="EwB9a3tiwE-nJWPInOgN-185" style="edgeStyle=orthogonalEdgeStyle;rounded=0;orthogonalLoop=1;jettySize=auto;html=1;exitX=0.5;exitY=1;exitDx=0;exitDy=0;entryX=0.5;entryY=0;entryDx=0;entryDy=0;" edge="1" parent="1" source="EwB9a3tiwE-nJWPInOgN-180" target="EwB9a3tiwE-nJWPInOgN-181">
          <mxGeometry relative="1" as="geometry" />
        </mxCell>
        <mxCell id="EwB9a3tiwE-nJWPInOgN-180" value="this-&amp;gt;node = node" style="rounded=0;whiteSpace=wrap;html=1;" vertex="1" parent="1">
          <mxGeometry x="2038" y="1155" width="120" height="60" as="geometry" />
        </mxCell>
        <mxCell id="EwB9a3tiwE-nJWPInOgN-181" value="return" style="ellipse;whiteSpace=wrap;html=1;" vertex="1" parent="1">
          <mxGeometry x="2038" y="1237" width="120" height="80" as="geometry" />
        </mxCell>
        <mxCell id="EwB9a3tiwE-nJWPInOgN-188" style="edgeStyle=orthogonalEdgeStyle;rounded=0;orthogonalLoop=1;jettySize=auto;html=1;exitX=0.5;exitY=1;exitDx=0;exitDy=0;entryX=0.5;entryY=0;entryDx=0;entryDy=0;" edge="1" parent="1" source="EwB9a3tiwE-nJWPInOgN-186" target="EwB9a3tiwE-nJWPInOgN-187">
          <mxGeometry relative="1" as="geometry" />
        </mxCell>
        <mxCell id="EwB9a3tiwE-nJWPInOgN-186" value="Inode::operator*()" style="ellipse;whiteSpace=wrap;html=1;" vertex="1" parent="1">
          <mxGeometry x="1610" y="1365" width="120" height="80" as="geometry" />
        </mxCell>
        <mxCell id="EwB9a3tiwE-nJWPInOgN-187" value="return this-&amp;gt;node" style="ellipse;whiteSpace=wrap;html=1;" vertex="1" parent="1">
          <mxGeometry x="1610" y="1484" width="120" height="80" as="geometry" />
        </mxCell>
        <mxCell id="EwB9a3tiwE-nJWPInOgN-197" style="edgeStyle=orthogonalEdgeStyle;rounded=0;orthogonalLoop=1;jettySize=auto;html=1;exitX=0.5;exitY=1;exitDx=0;exitDy=0;entryX=0.5;entryY=0;entryDx=0;entryDy=0;" edge="1" parent="1" source="EwB9a3tiwE-nJWPInOgN-189" target="EwB9a3tiwE-nJWPInOgN-190">
          <mxGeometry relative="1" as="geometry" />
        </mxCell>
        <mxCell id="EwB9a3tiwE-nJWPInOgN-189" value="Inode::operator+(int index)" style="ellipse;whiteSpace=wrap;html=1;" vertex="1" parent="1">
          <mxGeometry x="1807" y="1371" width="159" height="80" as="geometry" />
        </mxCell>
        <mxCell id="EwB9a3tiwE-nJWPInOgN-192" style="edgeStyle=orthogonalEdgeStyle;rounded=0;orthogonalLoop=1;jettySize=auto;html=1;exitX=1;exitY=0.5;exitDx=0;exitDy=0;entryX=0.5;entryY=0;entryDx=0;entryDy=0;" edge="1" parent="1" source="EwB9a3tiwE-nJWPInOgN-190" target="EwB9a3tiwE-nJWPInOgN-191">
          <mxGeometry relative="1" as="geometry" />
        </mxCell>
        <mxCell id="EwB9a3tiwE-nJWPInOgN-195" style="edgeStyle=orthogonalEdgeStyle;rounded=0;orthogonalLoop=1;jettySize=auto;html=1;exitX=0;exitY=0.5;exitDx=0;exitDy=0;" edge="1" parent="1" source="EwB9a3tiwE-nJWPInOgN-190">
          <mxGeometry relative="1" as="geometry">
            <mxPoint x="1807.333333333333" y="1622.3333333333335" as="targetPoint" />
          </mxGeometry>
        </mxCell>
        <mxCell id="EwB9a3tiwE-nJWPInOgN-190" value="index-- &amp;gt; 0?" style="rhombus;whiteSpace=wrap;html=1;" vertex="1" parent="1">
          <mxGeometry x="1832" y="1471" width="109" height="80" as="geometry" />
        </mxCell>
        <mxCell id="EwB9a3tiwE-nJWPInOgN-194" style="edgeStyle=orthogonalEdgeStyle;rounded=0;orthogonalLoop=1;jettySize=auto;html=1;exitX=0;exitY=0.5;exitDx=0;exitDy=0;entryX=0.5;entryY=1;entryDx=0;entryDy=0;" edge="1" parent="1" source="EwB9a3tiwE-nJWPInOgN-191" target="EwB9a3tiwE-nJWPInOgN-190">
          <mxGeometry relative="1" as="geometry" />
        </mxCell>
        <mxCell id="EwB9a3tiwE-nJWPInOgN-191" value="this-&amp;gt;node = this-&amp;gt;node-&amp;gt;next;" style="rounded=0;whiteSpace=wrap;html=1;" vertex="1" parent="1">
          <mxGeometry x="1914" y="1579" width="189" height="60" as="geometry" />
        </mxCell>
        <mxCell id="EwB9a3tiwE-nJWPInOgN-196" value="return this" style="ellipse;whiteSpace=wrap;html=1;" vertex="1" parent="1">
          <mxGeometry x="1748" y="1622" width="120" height="80" as="geometry" />
        </mxCell>
        <mxCell id="EwB9a3tiwE-nJWPInOgN-198" value="yes" style="text;html=1;align=center;verticalAlign=middle;resizable=0;points=[];autosize=1;strokeColor=none;fillColor=none;" vertex="1" parent="1">
          <mxGeometry x="1928" y="1478" width="37" height="26" as="geometry" />
        </mxCell>
        <mxCell id="EwB9a3tiwE-nJWPInOgN-199" value="no" style="text;html=1;align=center;verticalAlign=middle;resizable=0;points=[];autosize=1;strokeColor=none;fillColor=none;" vertex="1" parent="1">
          <mxGeometry x="1805" y="1480" width="31" height="26" as="geometry" />
        </mxCell>
      </root>
    </mxGraphModel>
  </diagram>
</mxfile>
